<svg width="109" height="27" xmlns="http://www.w3.org/2000/svg" xmlns:xlink="http://www.w3.org/1999/xlink"><defs><path id="a" d="M.121.245h108.643V26.94H.12z"/><path id="c" d="M.121.245h108.643V26.94H.12z"/><path id="e" d="M.121.245h108.643V26.94H.12z"/><path id="g" d="M.121.245h108.643V26.94H.12z"/><path id="i" d="M.121.245h108.643V26.94H.12z"/><path id="k" d="M.121.245h108.643V26.94H.12z"/><path id="m" d="M.121.245h108.643V26.94H.12z"/></defs><g fill="none" fill-rule="evenodd"><g><mask id="b" fill="#fff"><use xlink:href="#a"/></mask><path d="M15.849 9.695l.06-9.265H.302v25.71h6.05V13.01h.423c4.658 0 5.202 6.074 5.202 6.074h.121V6.873h-.06s-.605 6.075-5.202 6.075h-.424V.552h1.21c7.259 0 8.227 9.143 8.227 9.143" fill="#303030" fill-rule="nonzero" mask="url(#b)"/></g><g><mask id="d" fill="#fff"><use xlink:href="#c"/></mask><path d="M15.849 9.695l.06-9.265H.302v25.71h6.05V13.01h.423c4.658 0 5.202 6.074 5.202 6.074h.121V6.873h-.06s-.605 6.075-5.202 6.075h-.424V.552h1.21c7.259 0 8.227 9.143 8.227 9.143h0z" stroke="#303030" stroke-width=".553" mask="url(#d)"/></g><g><mask id="f" fill="#fff"><use xlink:href="#e"/></mask><path d="M69.02 7.61v18.654h5.203V7.609h-5.202zm20.93 4.601l.061-4.602h-1.754c1.331 2.148 1.694 4.602 1.694 4.602zm-59.1 0l.061-4.602h-1.754c1.391 2.148 1.694 4.602 1.694 4.602zM55.47 7.61l7.2 18.961 5.685-18.96h-.12l-3.086 10.37-3.932-10.37h-5.746zm-.604 0v18.655h.12V7.609h-.12zm-7.44 0v18.655h5.202V7.609h-5.203zm-13.611 0l7.198 18.961L46.7 7.61h-.12l-3.025 10.37-3.932-10.37h-5.807zm-.605 0v18.655h.12V7.609h-.12zm-15.728 0v18.532h14.579v-8.53h-.121s-.605 8.469-8.288 8.469h-1.089V15.034h.424c3.932 0 4.416 5.155 4.416 5.155h.06V9.819h-.06s-.484 5.154-4.416 5.154h-.363V7.609h-5.142zM91.1 26.141v-8.53h-.06s-.605 8.469-8.288 8.469h-1.088V15.034h.363c3.931 0 4.415 5.155 4.415 5.155h.06V9.819s-.483 5.154-4.415 5.154h-.363V7.609h-5.142v18.532H91.1z" fill="#303030" fill-rule="nonzero" mask="url(#f)"/></g><g><mask id="h" fill="#fff"><use xlink:href="#g"/></mask><path d="M69.02 7.61v18.654h5.203V7.609h-5.202zm20.93 4.601l.061-4.602h-1.754c1.331 2.148 1.694 4.602 1.694 4.602zm-59.1 0l.061-4.602h-1.754c1.391 2.148 1.694 4.602 1.694 4.602zM55.47 7.61l7.2 18.961 5.685-18.96h-.12l-3.086 10.37-3.932-10.37h-5.746 0zm-.604 0v18.655h.12V7.609h-.12zm-7.44 0v18.655h5.202V7.609h-5.203 0zm-13.611 0l7.198 18.961L46.7 7.61h-.12l-3.025 10.37-3.932-10.37h-5.807 0zm-.605 0v18.655h.12V7.609h-.12zm-15.728 0v18.532h14.579v-8.53h-.121s-.605 8.469-8.288 8.469h-1.089V15.034h.424c3.932 0 4.416 5.155 4.416 5.155h.06V9.819h-.06s-.484 5.154-4.416 5.154h-.363V7.609h-5.142 0zM91.1 26.141v-8.53h-.06s-.605 8.469-8.288 8.469h-1.088V15.034h.363c3.931 0 4.415 5.155 4.415 5.155h.06V9.819s-.483 5.154-4.415 5.154h-.363V7.609h-5.142v18.532H91.1z" stroke="#303030" stroke-width=".389" mask="url(#h)"/></g><g><mask id="j" fill="#fff"><use xlink:href="#i"/></mask><path d="M99.206 26.632c-4.476 0-7.622-3.068-7.924-5.277.363 1.35 1.512 2.27 2.903 2.27 1.694 0 3.025-1.35 3.025-3.068s-1.33-3.068-3.025-3.068c-1.996 0-3.024 1.595-3.024 3.313 0 .246.06.614.181 1.105.666 2.086 3.69 4.725 7.864 4.725 5.202 0 9.376-3.743 9.376-8.1 0-9.818-13.429-7.61-13.429-14.175 0-1.473.787-3.989 4.174-3.989 4.537 0 7.501 2.762 7.804 4.91-.363-1.35-1.513-2.271-2.904-2.271-1.694 0-3.025 1.35-3.025 3.068s1.331 3.068 3.025 3.068c1.996 0 3.025-1.595 3.025-3.313 0-.246-.061-.614-.182-1.105-.665-2.148-3.569-4.48-7.743-4.48-5.202 0-8.106 3.253-8.106 7.61 0 8.775 13.913 6.627 13.913 14.052 0 1.657-.968 4.725-5.928 4.725" fill="#303030" fill-rule="nonzero" mask="url(#j)"/></g><g><mask id="l" fill="#fff"><use xlink:href="#k"/></mask><path d="M99.206 26.632c-4.476 0-7.622-3.068-7.924-5.277.363 1.35 1.512 2.27 2.903 2.27 1.694 0 3.025-1.35 3.025-3.068s-1.33-3.068-3.025-3.068c-1.996 0-3.024 1.595-3.024 3.313 0 .246.06.614.181 1.105.666 2.086 3.69 4.725 7.864 4.725 5.202 0 9.376-3.743 9.376-8.1 0-9.818-13.429-7.61-13.429-14.175 0-1.473.787-3.989 4.174-3.989 4.537 0 7.501 2.762 7.804 4.91-.363-1.35-1.513-2.271-2.904-2.271-1.694 0-3.025 1.35-3.025 3.068s1.331 3.068 3.025 3.068c1.996 0 3.025-1.595 3.025-3.313 0-.246-.061-.614-.182-1.105-.665-2.148-3.569-4.48-7.743-4.48-5.202 0-8.106 3.253-8.106 7.61 0 8.775 13.913 6.627 13.913 14.052 0 1.657-.968 4.725-5.928 4.725z" stroke="#303030" stroke-width=".346" mask="url(#l)"/></g><g><mask id="n" fill="#fff"><use xlink:href="#m"/></mask><path d="M86.019 6.505c0-.307.121-.43.363-.43.363 0 .847.552 1.875.552 1.391 0 1.996-.675 1.996-1.78 0-2.27-3.63-1.779-3.63-3.436 0-.552.364-.981 1.271-.981 1.029 0 1.754.736 1.754 1.78h.182V.306h-.182c0 .123-.06.245-.302.245s-.605-.368-1.452-.368c-1.27 0-1.996.675-1.996 1.657 0 2.27 3.69 1.718 3.69 3.498 0 .613-.363 1.043-1.391 1.043-1.21 0-2.178-1.043-2.178-2.27h-.181v2.393h.181zm-1.15-1.78c0 1.35-.604 1.595-1.33 1.595h-1.754V3.436h.725c1.09 0 1.15.184 1.15 1.105h.181V2.148h-.181c0 .859-.121 1.104-1.15 1.104h-.725v-2.7h1.633c.847 0 1.33.246 1.33 1.412h.182V.307h-4.96V.49h.605v5.768h-.605v.184h5.02V4.725h-.12zM75.918 6.32h-.847V.552h.847c1.573 0 2.238.86 2.238 2.884 0 2.025-.665 2.884-2.238 2.884zm0-6.013h-2.601V.49h.605v5.768h-.605v.184h2.661c1.755 0 3.448-.92 3.448-3.068S77.671.307 75.917.307zm-4.96 4.418c0 1.35-.605 1.595-1.331 1.595h-1.392V.552h.605V.307H66.48V.49h.605v5.768h-.605v.184H71.2V4.725h-.242zm-9.498-.368l1.09-2.7 1.088 2.7H61.46zm4.174 1.963L63.093.184h-.242L60.43 6.32h-.726v.185h1.754V6.32h-.846l.665-1.78h2.36l.725 1.78h-.786v.185h2.6V6.32h-.544zM59.766.307H58.01V.49h.847v4.173L55.228.307h-1.39V.49h.604v5.768h-.605v.184h1.815V6.26h-.847V1.595l4.174 5.032h.182V.491h.605V.307zM49.482 3.314V.552h.847c1.028 0 1.33.368 1.33 1.412 0 .981-.423 1.411-1.512 1.411l-.665-.061zm4.114 3.006c-.363 0-.605-.184-.847-1.35-.303-1.104-.726-1.595-1.755-1.595 1.09-.123 1.997-.49 1.997-1.534 0-1.227-1.15-1.534-2.48-1.534h-2.723V.49h.605v5.768h-.605v.184h2.42V6.26h-.605V3.498h.726c1.875 0 .605 3.007 2.601 3.007h.907V6.32h-.241zM47.304.307H45.55V.49h.847v3.804c0 1.473-.605 2.025-1.633 2.025-1.15 0-1.755-.613-1.755-2.086V.552h.605V.307h-2.359V.49h.605v3.743c0 1.657.968 2.393 2.601 2.393 1.331 0 2.238-.49 2.238-2.27V.552h.605V.307zM37.565.43c1.21 0 1.815.859 1.815 3.006 0 2.148-.605 3.007-1.815 3.007-1.27 0-1.814-.92-1.814-3.007C35.69 1.29 36.355.43 37.565.43zm0 6.197c1.452 0 3.085-.92 3.085-3.19 0-2.271-1.633-3.253-3.085-3.253s-3.085.92-3.085 3.191c0 2.27 1.633 3.252 3.085 3.252zM33.996.307h-2.359V.49h.605v4.48c0 1.043-.181 1.472-.968 1.472-.605 0-1.089-.368-1.089-.859 0-.43.847-.184.847-.859 0-.368-.242-.614-.605-.614-.423 0-.665.369-.665.86 0 1.043.544 1.595 1.512 1.595 1.452 0 2.057-.86 2.057-2.086V.552h.605c.06 0 .06-.245.06-.245zm-6.593 4.418c0 1.35-.605 1.595-1.331 1.595h-1.754V3.436h.725c1.029 0 1.15.246 1.15 1.105h.181V2.148h-.181c0 .859-.121 1.104-1.15 1.104h-.725v-2.7h1.633c.847 0 1.33.246 1.33 1.412h.182V.307h-4.96V.49h.605v5.768h-.605v.184h5.02V4.725h-.12zm-5.384 0c0 1.35-.605 1.595-1.33 1.595h-1.392V.552h.605V.307h-2.36V.49h.605v5.768h-.604v.184h4.718V4.725h-.242z" fill="#303030" fill-rule="nonzero" mask="url(#n)"/></g></g></svg>