<svg width="106" height="39" xmlns="http://www.w3.org/2000/svg"><g fill="none"><path d="M13.85 38.99v-6.85l-.47-.1a15.68 15.68 0 01-7.09-3.1A15.84 15.84 0 01.04 17.2c-.06-.77-.06-1.54.02-2.31.2-2.55.94-4.94 2.29-7.12A15.96 15.96 0 0116.87.02a16.13 16.13 0 0111.27 26.83 15.64 15.64 0 01-6.27 4.36c-.1.03-.18.07-.28.12a26.05 26.05 0 00-5.68 4.7 11.69 11.69 0 00-2 2.94c-.04.04-.04.04-.06.02zM6.67 13.15c.22.04.2.04.33-.11a7.43 7.43 0 013.73-2.47c.9-.3 1.85-.44 2.81-.52.82-.05 1.66-.05 2.47.08.57.09 1.13.25 1.64.53.58.33 1.04.79 1.3 1.4a3.58 3.58 0 01-1.15 4.3l-2.71 2.21c-.55.46-1.11.9-1.6 1.41a7.76 7.76 0 00-1.5 2.1 7.16 7.16 0 00-.52 3.3 2.94 2.94 0 002.62 2.35c.78.03 1.56.01 2.32.01l.08-.01v-.2c0-.72 0-1.42.02-2.13.01-.77.29-1.45.8-2.03.32-.39.69-.73 1.09-1.06l3.74-3.2c.64-.54 1.25-1.1 1.78-1.75a6.87 6.87 0 001.35-2.45c.3-1.14.34-2.3.16-3.45a7.6 7.6 0 00-3.1-5.09 9.87 9.87 0 00-4.28-1.75c-1.1-.17-2.24-.22-3.34-.17-1 .06-1.99.2-2.93.48-1.15.35-2.2.86-3.1 1.66a5.68 5.68 0 00-2 4.14c-.04.79-.03 1.58-.03 2.35 0 .03 0 .05.02.07z" fill="#D6071B"/><path d="M83.5 5.57h5.94l.33.93c1 2.91 2.01 5.8 3.01 8.74.37 1.07.66 2.16.99 3.23l.05.18h.04l.05-.17c.35-1.12.67-2.26 1.04-3.38l2.63-7.65.62-1.79.04-.07h5.94c.6 7.4 1.2 14.81 1.82 22.22h-5.45l-.02-.1a61.8 61.8 0 00-.13-1.84l-.13-1.88-.18-2.82-.16-2.38a34.44 34.44 0 01-.07-4.6v-.09h-.06l-.02.04c0 .02-.02.03-.02.07-1.05 3.35-2.32 6.65-3.5 9.96l-.02.06c0 .01-.02.01-.02.03l-.02.02h-4.67c-1.2-3.39-2.5-6.74-3.58-10.16h-.06l-.01.14c.01.75.05 1.5.03 2.25 0 .58-.05 1.16-.09 1.74-.03.61-.07 1.23-.13 1.86l-.21 3.12-.22 3.11-.1 1.42-.01.07c-.13.04-5.3.04-5.5 0 .6-7.44 1.23-14.85 1.85-22.26zM59.83 7.9a504.6 504.6 0 00-2.48 4.12l-.16-.13a9.38 9.38 0 00-3.73-1.92c-1.3-.33-2.59-.3-3.86.14a5.56 5.56 0 00-3.5 3.45 7.36 7.36 0 00-.44 3.24c.11 1.23.49 2.38 1.17 3.41a5.7 5.7 0 003.95 2.56c1.29.22 2.54.02 3.74-.49a9.92 9.92 0 003.17-2.16l2.77 4-.2.22a12.2 12.2 0 01-9.41 3.5 11.42 11.42 0 01-3.47-.67 10.66 10.66 0 01-6.92-7.61 12.46 12.46 0 01-.4-3.9c.11-2.3.8-4.37 2.13-6.22a11 11 0 015.6-4.07 12.52 12.52 0 018.34.22 10.44 10.44 0 013.7 2.3zm17.91 4.16c-.47-.4-.93-.74-1.43-1.04a8.55 8.55 0 00-2.94-1.14 6.4 6.4 0 00-4.64.85 5.67 5.67 0 00-2.33 3.04 6.93 6.93 0 00-.35 2.96 7.35 7.35 0 001 3.24 5.75 5.75 0 004.01 2.8c1.33.23 2.62.05 3.85-.48 1.15-.49 2.15-1.18 3.06-2.05l.1-.09s.01-.02.05-.02c.91 1.33 1.82 2.66 2.75 3.98l-.48.5a12.22 12.22 0 01-9.13 3.23 12.1 12.1 0 01-4.52-1.1 10.6 10.6 0 01-5.76-6.79c-.43-1.4-.57-2.82-.5-4.27.09-2.04.66-3.93 1.73-5.66a11.03 11.03 0 015.99-4.65 12.4 12.4 0 013.25-.58c2.05-.1 4 .25 5.86 1.13a10.45 10.45 0 012.9 1.96l.04.05c-.86 1.39-1.69 2.75-2.51 4.13z" fill="#303030"/></g></svg>