<svg xmlns="http://www.w3.org/2000/svg" height="40" width="82.3"><linearGradient id="a" gradientUnits="userSpaceOnUse" x1="2.918" y1="-50.299" x2="80.621" y2="-50.931" gradientTransform="matrix(1 0 0 -1 0 -18.1)"><stop offset="0" stop-color="#006b9e"/><stop offset="1" stop-color="#0095de"/></linearGradient><path fill="url(#a)" d="M26 33.3h1.5l-.7-1.9z"/><linearGradient id="b" gradientUnits="userSpaceOnUse" x1="2.923" y1="-49.753" x2="80.626" y2="-50.384" gradientTransform="matrix(1 0 0 -1 0 -18.1)"><stop offset="0" stop-color="#006b9e"/><stop offset="1" stop-color="#0095de"/></linearGradient><path d="M76.2 32.9c.1.1.2.1.3.2.1 0 .2.1.4.1s.2 0 .3-.1c.1 0 .2-.1.3-.2.1-.1.1-.2.2-.3 0-.1.1-.2.1-.3 0-.1 0-.2-.1-.3 0-.1-.1-.2-.2-.3-.1-.1-.2-.1-.3-.2-.1 0-.2-.1-.3-.1-.1 0-.2 0-.4.1-.1 0-.2.1-.3.2-.1.1-.1.2-.2.3 0 .1-.1.2-.1.3s0 .2.1.3c0 .1.1.2.2.3z" fill="url(#b)"/><linearGradient id="c" gradientUnits="userSpaceOnUse" x1="2.92" y1="-50.248" x2="80.621" y2="-50.88" gradientTransform="matrix(1 0 0 -1 0 -18.1)"><stop offset="0" stop-color="#006b9e"/><stop offset="1" stop-color="#0095de"/></linearGradient><path d="M77.2 24.9H5.1c-2.8 0-5.1 2.2-5.1 4.8v5.5C0 37.8 2.3 40 5.1 40h72.2c2.8 0 5.1-2.2 5.1-4.8v-5.5c-.1-2.6-2.4-4.8-5.2-4.8zm-2 2.7l-.2-.2c-.1-.1-.1-.2-.1-.3 0-.2 0-.3.1-.4.1-.1.2-.1.5-.1h2.8c.2 0 .3.1.4.2.1.1.1.2.1.4 0 .1 0 .3-.1.4-.1.1-.2.2-.4.2h-1.6l.6.5c.1.1.2.2.2.3 0 .1-.1.2-.2.3l-.7.1h1.6c.2 0 .3.1.4.2.1.1.1.2.1.4 0 .1 0 .3-.1.4H75.4c-.2 0-.4 0-.5-.1-.1-.1-.1-.2-.1-.4s0-.3.1-.4c.1-.1.1-.2.2-.2l.9-.7-.8-.6zM5.8 33.2c.1.3.2.5.4.7s.4.4.7.5c.3.2.6.2 1 .3V33c0-.5.2-.8.5-1.1.3-.2.7-.4 1.1-.4s.8.1 1.1.4.5.6.5 1.1v3.2c0 .5-.1.8-.5 1.1s-.7.4-1.1.4H8.2c-.9 0-1.7-.2-2.5-.5-.6-.2-1.2-.6-1.7-1.1-.5-.5-.8-1-1.1-1.7-.2-.6-.3-1.3-.3-1.9 0-.7.1-1.3.4-2 .2-.6.6-1.2 1.1-1.7.5-.5 1.1-.9 1.8-1.2s1.6-.5 2.6-.5h.9c.3 0 .5 0 .7.1.2.1.4.2.5.3.1.1.2.3.3.5.1.2.1.4.1.5s0 .4-.1.5c-.1.2-.2.3-.3.5-.1.1-.3.3-.5.3-.2.1-.4.1-.7.1H8.2c-.4 0-.8.1-1.1.2-.3.1-.6.3-.8.5-.3.4-.4.6-.6.9-.1.3-.2.6-.2.9.1.3.2.5.3.8zm14.3 2c.2.3.3.6.3.9 0 .2 0 .4-.1.6s-.2.4-.3.5c-.1.1-.3.2-.5.3-.2.1-.4.1-.6.1-.2 0-.5-.1-.7-.2s-.4-.3-.6-.6l-1.8-3c-.3-.4-.5-.8-.5-1.3 0-.3.1-.5.2-.6.1-.2.3-.3.4-.3.2-.1.4-.1.6-.2s.4-.1.6-.1c.2-.1.3-.1.5-.2.1-.1.2-.3.2-.5 0-.5-.3-.8-1-.8h-1.7v6.3c0 1-.5 1.5-1.6 1.5-.5 0-.9-.1-1.2-.4-.3-.3-.4-.6-.4-1.1v-7.7c0-1 .5-1.5 1.5-1.5h3.4c.7 0 1.2.1 1.7.3.5.2.9.4 1.2.7.3.3.6.6.7 1s.2.8.2 1.2c0 .6-.2 1.2-.5 1.7s-.8.9-1.4 1.2l1.4 2.2zm11.6 1.7c-.1.2-.2.3-.4.4-.2.1-.3.2-.6.3-.2.1-.4.1-.6.1-.3 0-.6-.1-.8-.2-.2-.2-.4-.4-.6-.7l-.4-1.1H25l-.5 1.1c-.1.3-.3.6-.6.7-.2.2-.5.2-.8.2-.2 0-.4 0-.6-.1-.2-.1-.4-.2-.5-.3-.2-.1-.3-.3-.4-.4-.1-.2-.1-.4-.1-.6 0-.2 0-.4.1-.6l3.7-7.7c.2-.3.4-.6.7-.8.3-.2.6-.2.9-.2s.6.1.8.2c.3.2.5.4.6.8l3.4 7.7c.1.2.1.4.1.6.1.2 0 .4-.1.6zm7.2-7.3c-.3.3-.7.4-1.1.4h-1.1v6.2c0 .5-.2.8-.5 1.1-.3.2-.7.4-1.1.4-.4 0-.8-.1-1.1-.4-.3-.2-.5-.6-.5-1.1V30h-1.1c-.5 0-.9-.2-1.1-.4-.3-.3-.4-.6-.4-1s.1-.8.4-1 .7-.4 1.1-.4h5.3c.5 0 .9.2 1.1.4.3.3.4.6.4 1 .1.4 0 .7-.3 1zM49.4 33c0 3.1-1.5 4.7-4.5 4.7-3.1 0-4.6-1.6-4.6-4.7v-4.5c0-.5.2-.8.5-1.1.3-.2.7-.4 1.1-.4s.8.1 1.1.4c.3.2.5.6.5 1.1v4.9c0 .9.5 1.3 1.5 1.3s1.5-.4 1.5-1.3v-4.9c0-.5.2-.8.5-1.1.3-.2.7-.4 1.1-.4s.8.1 1.1.4c.3.2.5.6.5 1.1l-.3 4.5zm4.3 3.2c0 .5-.2.8-.5 1.1-.3.2-.7.4-1.1.4s-.8-.1-1.1-.4c-.3-.2-.5-.6-.5-1.1v-7.7c0-.5.2-.8.5-1.1.3-.2.7-.4 1.1-.4.4 0 .8.1 1.1.4.3.2.5.6.5 1.1v7.7zm9-6.6c-.3.3-.7.4-1.2.4h-1.1v6.2c0 .5-.2.8-.5 1.1-.3.2-.7.4-1.1.4-.4 0-.8-.1-1.1-.4-.3-.2-.5-.6-.5-1.1V30h-1.1c-.5 0-.9-.2-1.1-.4-.3-.3-.4-.6-.4-1s.1-.8.4-1 .7-.4 1.1-.4h5.3c.5 0 .9.2 1.1.4.3.3.4.6.4 1 .2.4 0 .7-.2 1zm6 8.1h-3.1c-1 0-1.5-.5-1.5-1.4v-.1c0-1 .5-1.5 1.5-1.5h3.3c.2 0 .4-.1.5-.2.1-.1.1-.2.1-.4s0-.2-.1-.4c-.1-.1-.3-.2-.5-.2h-1.6c-2.2 0-3.3-1.1-3.3-3.2 0-2.3 1.2-3.4 3.5-3.4H70c1 0 1.5.5 1.5 1.4v.1c0 1-.5 1.5-1.5 1.5h-2.7c-.2 0-.4.1-.5.2-.1.1-.1.2-.1.4 0 .1 0 .2.1.4.1.1.3.2.5.2h1.6c2.2 0 3.3 1.1 3.3 3.2 0 2.3-1.2 3.4-3.5 3.4zm6.2-6.2c.1-.2.2-.4.4-.6.2-.2.4-.3.6-.4.2-.1.5-.2.8-.2.3 0 .5.1.8.2.2.1.5.2.6.4.2.2.3.4.4.6.1.2.2.5.2.7 0 .3-.1.5-.2.7s-.2.4-.4.6c-.2.2-.4.3-.6.4-.2.1-.5.2-.8.2-.3 0-.5-.1-.8-.2-.2-.1-.5-.2-.6-.4-.2-.2-.3-.4-.4-.6s-.2-.5-.2-.7c.1-.2.1-.4.2-.7zm1.9 5.7c-.2 0-.5 0-.7-.1-.2-.1-.5-.2-.6-.4-.2-.2-.3-.4-.5-.6-.1-.2-.2-.5-.2-.8V35v-.2c0-.1.1-.1.1-.2.1 0 .1-.1.2-.1h.4c.1 0 .1.1.2.1s.1.1.1.2V35.4c0 .2 0 .3.1.4 0 .1.1.2.2.3.1.1.2.1.3.2.1 0 .2.1.3.1.1 0 .2 0 .3-.1.1 0 .2-.1.3-.2.1-.1.1-.2.2-.3 0-.1.1-.2.1-.4V35v-.2c0-.1.1-.1.1-.2.1 0 .1-.1.2-.1h.2c.1 0 .3 0 .4.1.1.1.2.2.2.4v.4c0 .3-.1.6-.2.8-.1.2-.3.4-.4.6-.2.2-.4.3-.6.3-.2.1-.4.1-.7.1zm2.3 1c0 .1-.1.1-.1.2 0 0-.1.1-.2.1h-.2c-.1 0-.3-.1-.4-.2-.1 0-.2-.1-.2-.3s.1-.3.2-.4c.1-.1.2-.2.4-.2h.2c.1 0 .1.1.2.1 0 0 .1.1.1.2v.5z" fill="url(#c)"/><linearGradient id="d" gradientUnits="userSpaceOnUse" x1="2.455" y1="-29.319" x2="79.864" y2="-29.319" gradientTransform="matrix(1 0 0 -1 0 -18.1)"><stop offset="0" stop-color="#006b9e"/><stop offset="1" stop-color="#0095de"/></linearGradient><path d="M18.1 11.2c0 1.7-.2 3.2-.7 4.6-.5 1.4-1.1 2.5-2 3.5-.9 1-2 1.7-3.4 2.2-1.4.5-2.9.8-4.7.8H5.8c-1 0-1.8-.3-2.4-.9s-.9-1.3-.9-2.2c0-.8.3-1.6.9-2.2s1.4-.9 2.4-.9h1c.8 0 1.5-.1 2.1-.2s1.1-.4 1.5-.8c.4-.3.7-.8.9-1.4.2-.6.3-1.3.3-2.2V3.1c0-1 .3-1.8 1-2.3.6-.5 1.4-.8 2.3-.8s1.6.3 2.3.8c.7.5 1 1.3 1 2.3l-.1 8.1zm5.8 11.2c-2.2 0-3.3-1-3.3-3.1V3.1C20.6 1 21.7 0 23.9 0H35c1 0 1.8.3 2.4.9.6.6.9 1.3.9 2.2 0 .8-.3 1.6-.9 2.2-.6.6-1.4.9-2.4.9h-7.9v1.9h6.3c1 0 1.8.3 2.4.9.6.6.9 1.3.9 2.2 0 .8-.3 1.6-.9 2.2-.6.6-1.4.9-2.4.9h-6.3v1.9H35c1 0 1.8.3 2.4.9.6.6.9 1.3.9 2.2s-.3 1.6-.9 2.2c-.6.6-1.4.9-2.4.9H23.9zM60 12.5c0 6.6-3.2 9.8-9.5 9.8-6.4 0-9.7-3.3-9.7-9.8V3.1c0-1 .3-1.8 1-2.3.7-.5 1.4-.8 2.3-.8.9 0 1.7.3 2.3.8.7.5 1 1.3 1 2.3v10.4c0 1.8 1 2.8 3.1 2.8 2 0 3.1-.9 3.1-2.8V3.1c0-1 .3-1.8 1-2.3.7-.5 1.4-.8 2.3-.8.9 0 1.7.3 2.3.8.7.5 1 1.3 1 2.3l-.2 9.4zM73.6 1.6c.3-.5.7-1 1.2-1.2.5-.3 1-.4 1.5-.4.4 0 .8.1 1.3.3s.8.4 1.1.7.6.6.8 1c.2.4.3.8.3 1.2 0 .6-.2 1.1-.6 1.6l-4.7 6.5 4.7 6.5c.4.5.6 1 .6 1.6 0 .4-.1.8-.3 1.2-.2.4-.5.7-.9 1-.3.3-.7.5-1.1.7s-.8.2-1.3.2-1-.1-1.4-.4-.8-.6-1.1-1.2l-2.5-4.2-2.5 4.2c-.3.5-.7.9-1.1 1.2-.5.2-.9.4-1.4.4-.4 0-.8-.1-1.3-.2s-.8-.4-1.1-.7c-.3-.3-.6-.6-.9-1-.2-.4-.3-.8-.3-1.2 0-.6.2-1.1.6-1.6l4.7-6.5L63 4.7c-.4-.5-.6-1-.6-1.6 0-.4.1-.8.3-1.2.2-.4.5-.7.8-1 .3-.3.7-.5 1.1-.7.5-.1.9-.2 1.4-.2.5 0 1 .1 1.5.4.5.3.9.7 1.2 1.2l2.5 4.2 2.4-4.2z" fill="url(#d)"/></svg>