<svg width="123" height="36" xmlns="http://www.w3.org/2000/svg"><g fill="#E21F32" fill-rule="nonzero"><path d="M.21 28.89V15.58h2.77v13.3zM7.58 17.67c0 .87-.69 1.53-1.61 1.53-.93 0-1.59-.66-1.59-1.53 0-.85.66-1.59 1.59-1.59.92 0 1.6.74 1.6 1.59zM4.59 28.89v-8.66h2.78v8.66H4.59zM17.77 23.58v5.3h-2.74v-4.72c0-1.03-.61-1.71-1.48-1.71-1.09 0-1.8.74-1.8 2.43v4H8.98v-8.65h2.77v.82a3.62 3.62 0 012.67-1.09c2 0 3.35 1.43 3.35 3.62zM25.56 28.52c-.68.37-1.37.63-2.37.63-2.17 0-3.46-1.16-3.46-3.46v-3.27h-1.59v-2.2h1.59v-2.9h2.77v2.9h2.56v2.2H22.5v3.01c0 .9.42 1.27 1.16 1.27.37 0 .9-.13 1.27-.35l.63 2.17z"/><path d="M34.43 25.27h-6.36c.24 1.03.92 1.67 1.88 1.67.63 0 1.37-.16 1.84-1l2.46.5c-.74 1.82-2.32 2.71-4.3 2.71a4.46 4.46 0 01-4.57-4.6c0-2.71 2.06-4.59 4.6-4.59 2.45 0 4.4 1.77 4.45 4.6v.71zm-6.3-1.69h3.56c-.27-.92-.95-1.37-1.74-1.37a1.9 1.9 0 00-1.83 1.37zM41.72 20.17l-.13 2.78h-.5c-1.93 0-2.98 1-2.98 3.25v2.72h-2.78v-8.67h2.78v1.67a3.38 3.38 0 012.98-1.77c.24-.05.42-.03.63.02zM51.15 23.58v5.3H48.4v-4.72c0-1.03-.6-1.71-1.47-1.71-1.09 0-1.8.74-1.8 2.43v4h-2.77v-8.65h2.77v.82a3.62 3.62 0 012.67-1.09c2 0 3.35 1.43 3.35 3.62z"/><g><path d="M6.87 11.35c-.72 1.8-2.62 2.51-3.83 2.51-2.01 0-2.96-.9-2.96-3.3 0-2.43 1.16-7 4.7-7 1.27 0 2.24.5 2.24 1.8 0 .71-.26 1.24-.95 1.24a.99.99 0 01-.76-.34c.31-.16.6-.74.6-1.24 0-.43-.2-.82-.81-.82-1.48 0-2.8 3.54-2.8 6.28 0 1.24.31 2.12 1.6 2.12 1.06 0 2.02-.5 2.62-1.35l.35.1z"/><path d="M11.72 8.95c.06.03.11.03.16.03.61 0 1.5-.4 2.09-.82l.13.37c-.5.55-1.4.95-2.38 1.1-.2 2.5-1.55 4.08-3.22 4.08-1.24 0-2.16-.59-2.16-2.14 0-1.56.92-4.78 3.7-4.78 1.13 0 1.68.74 1.68 2.16zm-1.13.74c-.3-.08-.37-.29-.37-.55 0-.37.18-.61.42-.74-.02-.56-.16-.8-.5-.8-.95 0-1.8 2.46-1.8 3.78 0 .9.19 1.08.7 1.08.62.03 1.31-1.18 1.55-2.77z"/><path d="M15.4 6.42l-.22 1c.4-.34.9-.58 1.59-.58.92 0 1.64.53 1.64 2.14 0 1.82-.72 4.75-3.3 4.75-.7 0-1-.24-1.14-.47l-.71 3.27-2.04.48 2.22-10.6h1.96zm1.16 2.5c0-1.02-.43-1.1-.69-1.1-.29 0-.69.23-.92.66l-.8 3.77c.06.16.22.32.5.32 1.43 0 1.9-2.38 1.9-3.64zM25.2 6.92l-.98 4.57c-.06.18-.06.31-.06.42 0 .37.19.58.56.58.53 0 .9-.58 1.08-1.27h.55c-.76 2.2-1.98 2.49-2.72 2.49-.76 0-1.24-.43-1.32-1.25-.42.61-1.05 1.25-2 1.25-.93 0-1.8-.56-1.8-2.17 0-1.82 1.11-4.73 3.46-4.73.77 0 1.08.3 1.08.69v.1l.16-.7h1.98v.02zm-4.66 4.46c0 1.03.43 1.06.7 1.06.39 0 .94-.4 1.1-1.2l.63-3.03c0-.16-.13-.5-.55-.5-1.14-.03-1.88 2.4-1.88 3.67z"/><path d="M28.68 6.92l-.98 4.57c-.05.18-.05.31-.05.42 0 .37.18.5.55.5.53 0 1-.5 1.22-1.19h.55c-.76 2.2-2.11 2.49-2.82 2.49-.82 0-1.46-.48-1.46-1.62 0-.26.06-.55.11-.87l.92-4.33h1.96v.03zm-.6-2.88c.57 0 1.07.48 1.07 1.08 0 .58-.47 1.06-1.08 1.06-.58 0-1.06-.48-1.06-1.06a1.05 1.05 0 011.06-1.08z"/><path d="M32.8 8.08c-.48 0-.85.56-1.06 1.24l-.92 4.33h-1.93l1.43-6.73h1.92l-.16.71a2.06 2.06 0 011.59-.76c.87 0 1.5.44 1.5 1.53 0 1.08-.63 2.72-.63 3.48 0 .35.13.56.53.56.58 0 .84-.48 1.13-1.2h.56c-.77 2.23-1.8 2.5-2.51 2.5-1.16 0-1.58-.77-1.58-1.54 0-.92.6-2.56.6-3.43.03-.45-.13-.69-.47-.69z"/><path d="M40.14 6.5c.16 3.48.29 4.01.29 4.9 0 1.75-1.59 2.33-2.7 2.33-1.37 0-1.95-.9-1.95-1.71 0-.61.34-1.09.71-1.25a20.33 20.33 0 001.67-3.98l1.98-.3zm-3.28 5.41c-.13 0-.29-.05-.37-.19 0 .64.24.96.82.96s1.16-.32 1.16-1.25c0-.7-.13-1.1-.26-3.2-.26.88-.63 1.7-1.08 2.54a.5.5 0 01.32.48c0 .32-.24.66-.59.66zM48.88 11.49c-.03.13-.05.26-.05.4 0 .31.13.52.55.52.24 0 .34-.05.42-.08-.08.95-.76 1.4-1.48 1.4-.68 0-1.24-.34-1.4-1.1-.4.57-1.02 1.1-1.9 1.1-.92 0-1.8-.55-1.8-2.16 0-1.83 1.12-4.73 3.47-4.73.76 0 1.08.29 1.08.69v.05l.66-3.1 1.98-.25-1.53 7.26zm-1.24-3.33c-.03-.16-.16-.48-.56-.48-1.13 0-1.87 2.43-1.87 3.7 0 1.03.42 1.06.69 1.06.34 0 .9-.32 1.05-.98l.69-3.3zM51.92 3.56c.55 0 .87.37.87.9 0 .72-.61 1.61-1.64 2.27-.1-.05-.13-.13-.13-.18l.66-.95c0-.08-.05-.16-.16-.24-.34-.21-.58-.47-.58-.84 0-.5.42-.96.98-.96z"/></g><g><path d="M98.02 6.76l-.97 4.57c-.06.18-.06.32-.06.42 0 .37.19.58.56.58.53 0 .9-.58 1.08-1.27h.55c-.76 2.2-1.98 2.49-2.72 2.49-.76 0-1.24-.43-1.32-1.24-.42.6-1.05 1.24-2 1.24-.93 0-1.8-.56-1.8-2.17 0-1.82 1.11-4.73 3.46-4.73.77 0 1.08.3 1.08.7v.12l.16-.71h1.98zm-4.65 4.46c0 1.03.43 1.06.7 1.06.39 0 .94-.4 1.1-1.19l.63-3.04c0-.15-.13-.5-.55-.5-1.14-.02-1.88 2.4-1.88 3.67z"/><path d="M104.02 7.66c0 2.16-1.09 5.91-3.83 5.91-1.03 0-1.67-.52-1.67-1.58 0-.16.03-.4.08-.64l.98-4.56h1.93l-.98 4.56c-.05.19-.08.37-.08.48 0 .26.13.45.45.45 1.32 0 2.32-3.01 2.32-4.49-.05.1-.31.13-.42.13-.31 0-.47-.4-.47-.68 0-.43.26-.74.84-.74.66 0 .85.58.85 1.16zM110.7 6.76l-.98 4.57c-.05.18-.05.32-.05.42 0 .37.18.58.55.58.53 0 .9-.58 1.09-1.27h.55c-.77 2.2-1.98 2.49-2.72 2.49-.77 0-1.24-.43-1.32-1.24-.42.6-1.06 1.24-2 1.24-.93 0-1.8-.56-1.8-2.17 0-1.82 1.1-4.73 3.46-4.73.76 0 1.08.3 1.08.7v.12l.16-.71h1.98zm-4.65 4.46c0 1.03.42 1.06.69 1.06.4 0 .95-.4 1.1-1.19l.64-3.04c0-.15-.13-.5-.55-.5-1.14-.02-1.88 2.4-1.88 3.67z"/><path d="M114.71 7.92c-.47 0-.84.56-1.05 1.24l-.93 4.33h-1.93l1.43-6.73h1.93l-.16.71a2.06 2.06 0 011.58-.76c.87 0 1.5.45 1.5 1.53s-.63 2.72-.63 3.48c0 .35.14.56.53.56.58 0 .85-.48 1.14-1.19h.55c-.76 2.22-1.8 2.48-2.5 2.48-1.17 0-1.59-.76-1.59-1.53 0-.92.6-2.56.6-3.43 0-.45-.15-.69-.47-.69z"/><path d="M120.05 11.33a1.5 1.5 0 00-.08.47c0 .3.1.48.47.48.1 0 .24 0 .35-.05-.37 1.16-.98 1.32-1.43 1.32-.95 0-1.35-.66-1.35-1.53 0-.24.03-.48.08-.72l.87-4.04h-.45l.11-.53h.45l.4-1.84 1.98-.27s-.22.93-.45 2.14h.82l-.11.53h-.82l-.84 4.04z"/></g><path d="M71.54 0a19.4 19.4 0 00-10.75 35.57l3.96-3.96a13.98 13.98 0 01-7.18-12.2 13.97 13.97 0 1125.59 7.74l-2.86-2.86a10.08 10.08 0 00-8.8-14.97 10.08 10.08 0 00-3.87 19.36c1.19.5 2.5.76 3.88.76 1.37 0 2.7-.29 3.88-.76l2.93 2.93 3.96 3.96A19.4 19.4 0 0071.53 0zm-4.86 19.4a4.9 4.9 0 119.78.02 4.9 4.9 0 01-9.78-.01z"/><g><path d="M101.59 28.78H98.8v-.82a3.62 3.62 0 01-2.66 1.09c-2.04 0-3.38-1.43-3.38-3.62v-5.3h2.74v4.72c0 1.03.61 1.72 1.48 1.72 1.09 0 1.8-.74 1.8-2.43v-4.02h2.77v8.66h.03zM109.48 28.41c-.68.37-1.37.64-2.37.64-2.17 0-3.46-1.16-3.46-3.46V22.3h-1.59v-2.19h1.59v-2.9h2.77v2.9h2.56v2.2h-2.56v3c0 .9.42 1.27 1.16 1.27.37 0 .9-.13 1.27-.34l.63 2.16z"/><path d="M118.36 25.17h-6.37c.24 1.03.93 1.66 1.88 1.66.63 0 1.37-.16 1.85-1l2.45.5c-.74 1.82-2.32 2.72-4.3 2.72a4.46 4.46 0 01-4.57-4.6c0-2.72 2.06-4.6 4.6-4.6 2.45 0 4.4 1.78 4.46 4.6v.72zm-6.32-1.7h3.57c-.26-.92-.95-1.37-1.74-1.37a1.9 1.9 0 00-1.83 1.38z"/></g></g></svg>