<svg width="88" height="41" xmlns="http://www.w3.org/2000/svg"><g fill-rule="nonzero" fill="none"><path d="M15.44 22.17c-.92.11-1.67.2-2.2.29-.55.07-1.05.15-1.5.22l-1.51.22-2.2.28c.15 1.28-.18-1.51-.04-.55.14.96.17 1.09.28 1.97.13.88.24 1.8.36 2.73l.43 3.3c.01.18-.11.36-.4.53-.28.17-.64.33-1.08.46a9.91 9.91 0 01-2.94.38 3.47 3.47 0 01-1.16-.2c-.33-.14-.5-.32-.53-.6-.24-1.88-.46-3.75-.67-5.56l-.68-5.5c-.22-1.86-.47-3.77-.73-5.74C.6 12.43.32 10.3 0 8.07c-.03-.22.1-.4.38-.56.28-.16.64-.29 1.1-.38.45-.1.94-.16 1.47-.2.53-.04 1.02-.05 1.47-.04.45.02.85.06 1.16.14.31.08.48.18.5.3l1.27 10.11c.92-.14 1.66-.24 2.2-.31l1.48-.21 1.5-.2 2.24-.34c-.1-.88-.78-6.46-.88-7.4-.09-.9-.22-1.82-.39-2.7-.04-.16.06-.32.33-.45.27-.14.6-.25.99-.34.4-.1.83-.18 1.31-.22a10.16 10.16 0 012.48.01c.3.07.48.16.54.29.26 1.83.49 3.73.76 5.72l.76 6 .76 5.94c.25 1.95.5 3.81.76 5.58.03.22-.1.43-.36.62a3.6 3.6 0 01-1.02.47 8.7 8.7 0 01-2.77.33c-.44 0-.81-.05-1.1-.13-.3-.08-.46-.19-.48-.36l-1.02-7.57z" fill="#F85939"/><path d="M31.15 25.03c.44.07.83-.05 1.17-.35.33-.32.63-.76.86-1.33.24-.56.43-1.24.58-2.01.16-.78.29-1.6.4-2.45.25-1.84.48-3.74.68-5.66.22-1.92.38-3.85.5-5.8 0-.16.15-.29.43-.35s.62-.1 1.05-.1c.4.02.84.05 1.33.12.47.06.9.15 1.31.26.41.11.76.24 1.02.38.27.14.4.27.4.4a76.25 76.25 0 01-1.02 12.01c-.11.7-.24 1.47-.41 2.3-.17.86-.4 1.7-.7 2.56-.27.85-.65 1.67-1.1 2.46a6.87 6.87 0 01-4.26 3.22c-.97.25-2.13.26-3.46.06a10.3 10.3 0 01-3.38-1.06 5.38 5.38 0 01-2.2-2.24c-.53-.99-.89-2.28-1.05-3.86-.17-1.58-.14-3.56.07-5.93.15-1.92.36-3.86.6-5.8.26-1.94.59-3.98 1.01-6.1.02-.08.17-.13.47-.15a15.7 15.7 0 012.5.19c.5.08.96.16 1.4.26.42.09.78.2 1.05.33.26.12.4.25.39.38-.24 1.95-.5 3.89-.8 5.83-.28 1.92-.53 3.93-.72 6-.08.83-.13 1.63-.1 2.39 0 .76.07 1.42.21 2 .14.57.34 1.04.63 1.42.26.3.65.52 1.14.62z" fill="#FFC001"/><path d="M60.15 17.6c.67-.05 1.13.23 1.38.83.23.6.39 1.66.43 3.16.08 1.83-.15 3.34-.68 4.56a7.54 7.54 0 01-2.2 2.91 8.74 8.74 0 01-3.2 1.61c-1.2.33-2.43.52-3.7.57a8.89 8.89 0 01-1.72-.14 11.17 11.17 0 01-4.23-1.75 9.31 9.31 0 01-1.97-1.9c-.6-.75-1.12-1.68-1.54-2.76a13 13 0 01-.8-3.78c-.15-1.81-.12-3.44.1-4.87.22-1.42.56-2.67 1.01-3.74a9.82 9.82 0 013.87-4.54 9.9 9.9 0 012.46-1.06c.86-.23 1.7-.36 2.5-.4.98-.04 2 .04 3.04.21 1.05.18 2 .55 2.9 1.1A7.35 7.35 0 0160.07 10a9.81 9.81 0 011.22 4.02c.02.22-.1.42-.37.61-.27.2-.61.33-1.05.48a8.92 8.92 0 01-2.84.31 2.96 2.96 0 01-1.12-.31c-.32-.16-.47-.4-.49-.71a2.1 2.1 0 00-.36-1.1 2.7 2.7 0 00-1.83-1.14c-.4-.08-.8-.11-1.2-.11-.84.03-1.54.28-2.12.77a4.8 4.8 0 00-1.36 1.9 9.19 9.19 0 00-.68 2.7c-.1 1.01-.1 2.04 0 3.11a6.67 6.67 0 001.49 3.7c.4.48.86.84 1.38 1.1a3.5 3.5 0 001.66.36c.45-.02.92-.05 1.42-.14.5-.08.97-.24 1.41-.45.44-.22.8-.52 1.1-.91.3-.4.45-.91.5-1.56-.96.08-1.7.13-2.2.14-.53.02-1.03.05-1.5.1a.62.62 0 01-.65-.23c-.18-.2-.32-.47-.43-.82a5.93 5.93 0 01-.1-2.35c.07-.37.18-.69.34-.96.14-.27.34-.42.6-.45l7.26-.46zM33.76 33.97c0-.03.05-.08.13-.1a.87.87 0 01.31-.04c.13-.02.25-.02.41-.02a3.25 3.25 0 01.72.08c.08.03.13.06.13.1V35.7l.01.7c0 .24 0 .47.02.71l.01.79c0 .28 0 .6.02.93.34 0 .7 0 1.05.02l1.05.01c.03 0 .06.05.07.13.02.08.04.19.04.3v.4a3.35 3.35 0 01-.08.72c-.02.08-.03.12-.07.12h-2.25l-1.06-.01h-.13c-.05 0-.1 0-.14-.02a.25.25 0 01-.11-.06c-.03-.03-.05-.08-.05-.14l-.08-6.34zM39.82 35.86a.63.63 0 01-.22.24 1.26 1.26 0 01-.72.1 1 1 0 01-.32-.09.46.46 0 01-.2-.17c-.05-.06-.05-.14 0-.24a1.47 1.47 0 000-1.3c0-.09 0-.16.05-.23a.5.5 0 01.22-.17c.1-.05.2-.08.33-.11.13-.02.24-.03.35-.02.1.02.22.03.3.08.09.05.15.11.18.19a2 2 0 01.17.63 2.18 2.18 0 01-.08.93l-.06.16zM40.51 34.44c-.01-.11.05-.19.16-.25.1-.07.25-.11.4-.14.16-.04.34-.05.5-.07l.43-.03 2.79-.28c.06 0 .1.03.14.1.05.07.08.15.1.26.04.11.06.22.06.36v.37l-.05.28c-.03.08-.06.11-.11.11l-.35.02-.48.04-.55.07c-.19.01-.38.04-.55.06-.17.01-.34.03-.48.06l-.36.05.03.36.01.18.02.07c0 .02 0 .05.02.08l.01.18c.02.08.02.2.03.38l.5-.05.61-.05c.2-.02.43-.03.61-.06l.5-.07c.05-.01.08.02.13.1.03.08.08.16.1.27.03.1.04.23.06.36l.01.36c0 .11-.01.2-.04.29-.04.07-.07.12-.13.12l-2.2.24.02.28.02.11v.07l.02.12.03.29.6-.07c.26-.03.5-.04.76-.08l.75-.07c.25-.02.46-.05.61-.05.05 0 .1.03.13.1.04.09.08.18.1.28.04.1.05.23.07.36l.01.36c0 .11-.01.2-.04.3-.03.08-.06.13-.13.13l-.6.08-.85.08c-.3.03-.58.06-.85.07l-.63.07-.45.04c-.16.02-.3.04-.42.04-.13 0-.24 0-.33-.04-.1-.03-.13-.06-.14-.14l-.6-6.1zM50.38 35.9s-.05.04-.13.05c-.08.02-.17.04-.3.04h-.37c-.14 0-.27-.02-.38-.04-.1-.01-.22-.03-.3-.06-.07-.03-.1-.06-.1-.11 0-.22-.05-.38-.16-.49a.6.6 0 00-.38-.17.58.58 0 00-.39.1c-.12.07-.19.17-.19.3 0 .1.02.18.08.24.05.07.11.13.2.2.07.06.16.1.26.17l.33.19c.32.2.6.42.84.63.22.22.4.44.53.66.14.22.22.46.29.68.04.23.06.45.04.68-.01.23-.08.45-.15.66a1.73 1.73 0 01-.97.9c-.24.1-.52.12-.83.1a4.16 4.16 0 01-1-.15c-.32-.1-.6-.24-.84-.44-.23-.2-.4-.48-.53-.8a2.52 2.52 0 01-.1-1.22c0-.05.05-.08.13-.11a.78.78 0 01.3-.05h.38l.37.05c.11.03.2.06.28.11.08.05.11.1.11.16-.01.17.02.31.05.42.05.11.1.2.19.27.08.06.17.11.26.14.1.03.2.03.32.03.1 0 .17-.03.23-.1s.1-.16.11-.27a1 1 0 00-.05-.37 1.6 1.6 0 00-.23-.4.9.9 0 00-.22-.2l-.31-.2c-.11-.06-.24-.14-.38-.2l-.37-.2c-.41-.18-.68-.45-.83-.78a2 2 0 01-.11-1.2c.03-.24.1-.44.22-.6a1.63 1.63 0 01.89-.66c.19-.07.36-.1.55-.11.18-.02.36-.02.53-.02.17 0 .31.02.44.05.26.05.5.12.7.23a1.82 1.82 0 01.86 1.06c.11.28.14.54.13.82zM54.72 38.38c.07-.1.15-.19.28-.22a.92.92 0 01.72.13c.12.06.22.14.31.23.1.08.16.18.19.27.03.1.05.2 0 .27a2.2 2.2 0 01-.61.85 2.67 2.67 0 01-1.65.65 3.52 3.52 0 01-1.77-.36 2.74 2.74 0 01-1.33-1.64c-.12-.4-.17-.84-.14-1.36a5.5 5.5 0 01.44-1.72c.22-.46.49-.83.8-1.1.31-.29.67-.48 1.08-.57.4-.11.83-.13 1.28-.08.41.05.74.16.99.35.25.19.45.4.6.68.14.25.23.53.3.83.04.3.07.58.07.85 0 .08-.05.16-.12.2a.8.8 0 01-.33.13c-.13.04-.27.05-.43.05-.15 0-.3 0-.42-.03-.12-.02-.23-.06-.31-.1-.08-.04-.11-.09-.1-.15a.98.98 0 00.02-.43.98.98 0 00-.13-.38.92.92 0 00-.2-.26.43.43 0 00-.23-.13c-.24-.02-.44.03-.63.14-.19.11-.34.27-.49.46-.14.2-.25.42-.32.7-.08.26-.13.53-.15.83-.01.2 0 .4.07.57.04.17.12.33.22.47.09.14.22.25.34.33.14.08.28.13.44.14.1.02.2.02.3.02.1 0 .18-.02.28-.05.1-.03.19-.1.3-.17.1-.08.22-.2.33-.4zM62.73 40.04c.02.06 0 .12-.06.19a.61.61 0 01-.27.14c-.1.03-.23.06-.37.08l-.41.01c-.12 0-.23-.03-.34-.04-.1-.04-.16-.08-.2-.15l-.13-.37-.13-.4-2.41.16-.06.4-.08.39c-.02.06-.08.1-.16.16l-.31.1c-.13.04-.25.04-.38.04-.14 0-.26-.02-.37-.03a.6.6 0 01-.27-.13c-.06-.06-.1-.13-.08-.22l1.27-6.06c0-.1.08-.2.2-.28.13-.08.3-.14.5-.19a4.36 4.36 0 011.28-.1c.2.02.36.05.5.1s.22.11.23.19l2.05 6zm-4.02-2.02l1.6-.1-.96-2.63-.64 2.73zM62.51 34.46c-.01-.07.02-.13.1-.18a1.78 1.78 0 01.69-.23l.39-.05.31.01c.08.02.13.05.14.08l.03.2a2.17 2.17 0 011.9-.55 1.7 1.7 0 011.36 1.46l.08.61c.01.2-.02.44-.06.68-.07.24-.18.49-.35.76-.16.27-.4.55-.74.86l.46.2.42.2.42.2.44.22c.05.02.07.08.07.16s-.02.18-.05.29l-.13.33c-.06.1-.1.22-.18.31a.87.87 0 01-.22.2.22.22 0 01-.22.02l-.74-.36-.7-.35a6.02 6.02 0 01-1-.54l.12.67.12.66c.02.06-.01.14-.07.2a.96.96 0 01-.29.18 2.04 2.04 0 01-.83.17c-.12 0-.23-.01-.32-.04-.1-.03-.14-.08-.16-.16l-.99-6.21zm2.2 3.13a4.87 4.87 0 00.9-.72c.16-.17.27-.36.33-.59a.9.9 0 00-.04-.69.37.37 0 00-.27-.24.79.79 0 00-.42.04 1.4 1.4 0 00-.46.23 1.3 1.3 0 00-.34.38l.3 1.6zM73.38 37.3c.19.01.3.09.34.26.05.18.07.46.04.87-.04.49-.15.9-.33 1.21-.2.32-.41.56-.68.73-.26.17-.58.28-.9.33-.33.05-.68.06-1.02.05a3.06 3.06 0 01-1.57-.7 2.77 2.77 0 01-.8-1.36 5.3 5.3 0 01.06-2.37c.1-.37.24-.7.4-.97a3 3 0 01.53-.67c.2-.18.42-.32.64-.43.22-.11.46-.17.7-.2a3.41 3.41 0 011.5.1c.3.09.54.21.76.4.22.17.4.41.55.71.14.3.2.68.2 1.12 0 .06-.04.11-.12.16a.74.74 0 01-.3.1 3.03 3.03 0 01-.78 0 .74.74 0 01-.3-.13.23.23 0 01-.11-.2.71.71 0 00-.06-.32.64.64 0 00-.2-.23.87.87 0 00-.26-.14c-.1-.03-.2-.04-.33-.06a.93.93 0 00-.6.14c-.16.11-.3.27-.41.47-.11.21-.2.45-.27.71-.06.27-.1.56-.1.84 0 .2.02.4.08.57.05.17.13.33.22.47.1.14.2.25.35.33.12.08.28.13.44.14.12.02.25.02.39 0 .14 0 .26-.03.39-.07a.77.77 0 00.52-.63c-.27 0-.46-.02-.6-.04l-.4-.01c-.08 0-.13-.02-.18-.08a.54.54 0 01-.1-.24v-.31c0-.11.02-.22.05-.32.04-.1.07-.19.11-.25.05-.06.11-.11.18-.11l1.97.12zM80.24 36.58c.08.46.1.86.08 1.2-.03.35-.08.67-.2.92-.09.27-.23.49-.38.68a2.5 2.5 0 01-1.16.77c-.22.08-.44.12-.64.17-.33.06-.68.1-1.05.06a2.52 2.52 0 01-1.97-1.14c-.27-.37-.46-.89-.6-1.55a4.49 4.49 0 01-.05-1.81 2.61 2.61 0 011.49-1.94c.38-.18.75-.29 1.14-.35a3 3 0 011.13.01c.36.08.67.23.97.46.28.24.53.55.75.98.22.43.38.93.49 1.54zm-4.28.95c.05.24.13.44.25.63a1.62 1.62 0 00.88.73 1.15 1.15 0 00.94-.13c.14-.08.27-.2.38-.35.1-.15.18-.34.23-.6a3.74 3.74 0 00-.27-1.8 2.16 2.16 0 00-.36-.6c-.14-.13-.3-.24-.45-.3-.17-.04-.34-.05-.52-.04-.23.03-.42.13-.6.27-.16.14-.29.31-.38.53a2.68 2.68 0 00-.1 1.66zM80.25 35.48a1.17 1.17 0 01-.07-.3c-.02-.13-.05-.25-.05-.4-.02-.13-.02-.26-.02-.39 0-.12.02-.22.03-.3.02-.08.05-.12.08-.12l4.04-.41c.03 0 .06.03.1.1.03.09.06.18.07.3l.07.37.03.4c0 .1 0 .21-.02.3-.01.07-.03.12-.08.12l-1.2.13c.06.5.1.96.16 1.35l.12 1.15.13 1.15.15 1.34c0 .02-.04.04-.12.07l-.3.06-.4.05c-.13.01-.26.01-.38.03-.13 0-.22 0-.3-.02-.08-.01-.13-.03-.14-.06l-.11-.93-.1-.8-.07-.73-.08-.72a59.67 59.67 0 01-.19-1.74l-1.2.13a.19.19 0 01-.15-.13z" fill="#0DA9A8"/><path d="M75.57 6.3A12.42 12.42 0 0063.2 18.78c0 6.87 5.54 12.45 12.37 12.45 6.83 0 12.37-5.58 12.37-12.45 0-6.88-5.54-12.46-12.37-12.46zm0 20.03a7.54 7.54 0 01-7.51-7.56 7.54 7.54 0 017.51-7.57 7.54 7.54 0 017.52 7.57 7.54 7.54 0 01-7.52 7.56z" fill="#9ECC1D"/><path d="M72.6 8.33c-.02-.04-1.77-3.08-.7-5.63.37-.86.82-1.4 1.35-1.6C73.8.54 74.4.73 74.4.9l.45-.49s-.5-.52-1.47-.17c-.81.28-1.91.93-2.4 2.06-1.26 3 .68 6.39.76 6.53l.86-.5z" fill="#9ECC1D"/><g transform="translate(72.47)" fill="#9ECC1D"><ellipse transform="rotate(-89.45 1.55 1.69)" cx="1.55" cy="1.69" rx="1.17" ry="1.13"/><path d="M.03 1.69C.05.84.72.14 1.57.16c.83.01 1.51.7 1.5 1.56a1.53 1.53 0 01-1.54 1.53 1.53 1.53 0 01-1.5-1.56zm.77 0c0 .42.33.77.73.79.41 0 .76-.35.76-.78a.78.78 0 00-.74-.79C1.15.9.8 1.26.8 1.7z"/></g><path d="M77.58 8.17l-.14-.29c-.43-.94-1.04-2.75-.32-4.33.4-.9.66-1.47 1.41-1.63.55-.1 1.68-.45 1.68-.45-.03-.02-.8-.7-1.79-.33-.78.28-1.74.97-2.2 2-.9 1.95-.2 4.08.3 5.19.05.1.41.06.46.15l.6-.31z" fill="#9ECC1D"/><g transform="translate(77.64 1.1)" fill="#9ECC1D"><ellipse transform="rotate(-89.45 1.63 1.48)" cx="1.63" cy="1.48" rx="1.07" ry="1.13"/><path d="M.11 1.48C.11.68.8.03 1.64.05c.83.01 1.52.66 1.5 1.46 0 .8-.68 1.45-1.53 1.44C.77 2.93.1 2.27.11 1.48zm.77 0c0 .38.33.68.75.7.42.01.75-.3.75-.68 0-.38-.33-.68-.75-.7-.4 0-.75.3-.75.68z"/></g><g fill="#9ECC1D"><path d="M72.49 16.53c-.07-.5.25-.98.72-1.12a.88.88 0 00-.5-.18c-.88-.01-1.6 1.33-1.65 3-.03 1.67.64 3.06 1.5 3.07.88.02 1.6-1.32 1.65-3 .02-.4-.03-.78-.1-1.14a.97.97 0 01-.5.22 1 1 0 01-1.12-.85z"/><path d="M72.6 21.4h-.02c-.92-.02-1.63-1.4-1.58-3.15.03-1.74.78-3.1 1.7-3.1h.02c.19 0 .38.07.55.2.03 0 .03.04.03.07 0 .03-.03.07-.06.07a.93.93 0 00-.31 1.64c.2.15.43.22.68.17.18-.03.33-.1.46-.2.01-.02.05-.04.08-.02.03.01.04.03.04.06.08.4.11.79.1 1.17-.02 1.75-.77 3.09-1.7 3.09zm.1-6.07c-.82 0-1.51 1.3-1.54 2.93-.04 1.63.6 2.97 1.42 3h.02c.81 0 1.5-1.31 1.53-2.94a5.3 5.3 0 00-.06-.99 1.1 1.1 0 01-1.68-.77c-.06-.5.2-.95.61-1.15a.61.61 0 00-.3-.08z"/><g><path d="M77.98 16.53c-.06-.5.25-.98.72-1.12a.88.88 0 00-.5-.18c-.87-.01-1.6 1.33-1.64 3-.03 1.67.64 3.06 1.5 3.07.88.02 1.6-1.32 1.65-3 .01-.4-.04-.78-.1-1.14a.97.97 0 01-.5.22 1 1 0 01-1.13-.85z"/><path d="M78.1 21.4h-.02c-.93-.02-1.63-1.4-1.58-3.15.03-1.74.78-3.1 1.7-3.1h.02c.19 0 .37.07.55.2.03 0 .03.04.03.07 0 .03-.03.07-.07.07a.93.93 0 00-.3 1.64c.2.15.43.22.68.17.17-.03.33-.1.45-.2.02-.02.05-.04.08-.02.03.01.05.03.05.06.08.4.11.79.1 1.17-.04 1.75-.77 3.09-1.7 3.09zm.09-6.07c-.82 0-1.5 1.3-1.54 2.93-.03 1.63.61 2.97 1.43 3h.01c.82 0 1.5-1.31 1.54-2.94a5.3 5.3 0 00-.07-.99c-.12.08-.28.14-.43.16a1.1 1.1 0 01-1.24-.93c-.06-.5.19-.95.61-1.15a.61.61 0 00-.31-.08c.01 0 .01 0 0 0z"/></g></g></g></svg>