<svg width="104" height="40" xmlns="http://www.w3.org/2000/svg"><g fill="none" fill-rule="evenodd"><path d="M56.08 5.78c3.15 0 4.26 1.62 4.26 3.48v5.97c0 1.83-1.09 3.47-4.26 3.47H51.3V5.78h4.78zm-2.35 10.75h2.11c1.64 0 2.09-.66 2.09-1.9v-4.8c0-1.24-.45-1.9-2.09-1.9h-2.1v8.6zM67.68 11.23c-.9.4-1.63.83-2.48 1.38v6.09h-2.35V9.26h1.99l.17 1.04c.52-.35 1.63-1 2.46-1.23l.21 2.16zM72.91 18.86c-3.22 0-4.1-1.78-4.1-3.7v-2.38c0-1.93.88-3.71 4.1-3.71 3.22 0 4.1 1.78 4.1 3.7v2.38c0 1.93-.88 3.71-4.1 3.71zm0-7.8c-1.25 0-1.72.57-1.72 1.62v2.55c0 1.07.47 1.61 1.72 1.61 1.26 0 1.73-.57 1.73-1.61V12.7c.03-1.07-.47-1.64-1.73-1.64zM79.28 7.92V5.2h2.35v2.73h-2.35zm0 10.75V9.26h2.35v9.41h-2.35zM89.32 18.5c-.5.22-1.46.36-2.06.36-1.7 0-2.58-.8-2.58-2.5v-5.22h-1.4V9.26h1.4V6.9l2.35-.33v2.66h2.41l-.16 1.88h-2.25v4.95c0 .5.23.83.85.83.35 0 .78-.07 1.18-.19l.26 1.8zM42.42 22.67a7.2 7.2 0 00-1.35-.17c-.93 0-1.07.4-1.07 1.12v1.19h2.4l-.15 1.88h-2.22v7.56h-2.37v-7.54h-1.5v-1.88h1.5v-1.3c0-1.96.9-2.93 2.98-2.93.73 0 1.4.1 2.01.26l-.23 1.8zM44.03 23.48v-2.74h2.34v2.74h-2.34zm0 10.77v-9.42h2.34v9.42h-2.34zM54.63 34.25v-6.59c0-.5-.2-.76-.75-.76-.57 0-1.61.36-2.44.79v6.56h-2.35v-9.42h1.8l.24.79c1.18-.57 2.65-1 3.77-1 1.56 0 2.13 1.1 2.13 2.78v6.85h-2.4zM66.54 34.25h-1.91l-.17-.64c-.85.57-1.85.83-2.8.83-1.7 0-2.43-1.19-2.43-2.8 0-1.93.83-2.67 2.74-2.67h2.25v-1c0-1.04-.28-1.4-1.8-1.4-.85 0-1.77.12-2.6.28l-.28-1.8c.87-.26 2.17-.45 3.22-.45 2.96 0 3.8 1.04 3.8 3.4v6.25h-.02zm-2.36-3.57h-1.73c-.78 0-.97.22-.97.93 0 .67.21.95.94.95a3.9 3.9 0 001.78-.47v-1.4h-.02zM74.6 34.25v-6.59c0-.5-.22-.76-.76-.76-.57 0-1.61.36-2.44.79v6.56h-2.35v-9.42h1.8l.24.79c1.18-.57 2.65-1 3.77-1 1.56 0 2.13 1.1 2.13 2.78v6.85h-2.4zM79.12 30.8v-2.57c0-2.54 1.09-3.61 4.05-3.61.66 0 1.6.12 2.3.36l-.29 1.92a9.13 9.13 0 00-1.94-.26c-1.35 0-1.75.4-1.75 1.57v2.62c0 1.16.4 1.57 1.75 1.57.59 0 1.28-.08 1.94-.27l.28 1.93c-.61.21-1.51.36-2.3.36-2.93.02-4.04-1.07-4.04-3.62zM91.22 32.49c.9 0 1.84-.14 2.86-.45l.36 1.78c-1.07.4-2.32.6-3.46.6-2.96 0-3.98-1.38-3.98-3.64V28.3c0-2 .88-3.68 3.89-3.68 3 0 3.67 1.76 3.67 3.8v2.03h-5.24v.47c.07 1.14.48 1.57 1.9 1.57zm-1.83-3.97h2.99v-.48c0-.88-.26-1.5-1.42-1.5s-1.57.62-1.57 1.5v.48zM99.65 34.44c-1 0-2.37-.24-3.25-.55l.33-1.8c.79.23 1.83.4 2.8.4 1.04 0 1.18-.24 1.18-.95 0-.57-.12-.88-1.63-1.24-2.3-.57-2.56-1.14-2.56-2.97 0-1.9.83-2.73 3.5-2.73.88 0 2.02.11 2.82.33l-.23 1.88c-.71-.15-1.85-.26-2.58-.26-1.02 0-1.19.23-1.19.8 0 .76.05.81 1.33 1.15 2.63.68 2.86 1.04 2.86 2.97 0 1.83-.54 2.97-3.38 2.97z" fill="#000" fill-rule="nonzero"/><path d="M16.6.98c8.84 0 15.99 7.18 15.97 16.05 0 6.9-4.34 12.75-10.4 15.03-.1.05-5.94 3.52-7.79 7.78v-6.92A16.03 16.03 0 01.62 17.03C.62 8.16 7.78.98 16.61.98zm-.56 4.42c-6.09 0-8.79 3.33-8.79 6.5v2.18h.24c1.45-1.97 4.05-3.13 7.58-3.13 3.1 0 4.64 1.26 4.64 3.5 0 .92-.33 1.92-1.4 2.8l-3.29 2.7c-2.3 1.86-3.03 3.6-3.03 5.88 0 1.55 1.44 2.76 2.84 2.76h2.18V26.9c0-1.6.21-2.33 1.99-3.83l3.72-3.16c2.46-2.1 3.26-3.78 3.26-6.16 0-4.52-3.48-8.35-9.94-8.35z" fill="#2A8DC8" fill-rule="nonzero"/><path d="M16.6.98A16.01 16.01 0 00.63 17.03c0 8.11 6 14.8 13.76 15.89v6.92c1.85-4.26 7.7-7.73 7.8-7.78a16.05 16.05 0 0010.39-15.03A15.98 15.98 0 0016.6.98z"/><path d="M22.72 19.91L19 23.07C17.22 24.57 17 25.31 17 26.9v1.69h-2.18c-1.4 0-2.84-1.21-2.84-2.76 0-2.28.73-4.02 3.03-5.87l3.3-2.71a3.51 3.51 0 001.39-2.8c0-2.24-1.54-3.5-4.64-3.5-3.53 0-6.13 1.16-7.58 3.13h-.24V11.9c0-3.17 2.7-6.5 8.79-6.5 6.46 0 9.94 3.83 9.94 8.35 0 2.38-.8 4.07-3.26 6.16z"/></g></svg>