<svg width="110" height="42" xmlns="http://www.w3.org/2000/svg"><g fill="none" fill-rule="evenodd"><g fill="#303030"><path d="M31.206 16.593c0 4.668-2.352 8.782-8.467 8.782-4.046 0-5.739-2.034-5.739-3.836 0-1.156.847-1.942 2.07-1.942 1.082 0 1.975.832 1.975 1.942 0 1.201-.846 1.849-.846 2.45 0 .6.564.785 3.01.785 4.75 0 4.563-3.79 4.563-7.904V5.685c0-5.084-.33-5.5-2.164-5.593h-.8V0h9.36v.092L33.37.14c-1.834.092-2.163.508-2.163 5.592v10.862z"/><path d="M35.49 25.28l.801-.046c1.84-.094 2.17-.518 2.17-5.697v-13.7c0-5.178-.33-5.602-2.17-5.696L35.49.094V0h12.357c8.35 0 12.736 5.744 12.736 12.664 0 6.967-4.623 12.711-12.736 12.711H35.49v-.094zM43.697.66c-1.651 0-1.793.14-1.793 5.225v13.7c0 5.084.095 5.225 1.793 5.225h4.198c6.367 0 8.867-5.65 8.867-12.052 0-6.685-2.971-12.052-8.867-12.052h-4.198V.66z" fill-rule="nonzero"/><path d="M83.138 20.319V8.443c0-3.062-.552-8.165-3.354-8.304l-.78-.046V0h7.992v.093l-.413.046c-2.021.186-2.848 3.062-2.848 8.768v16.468h-.505L64.44 2.737v13.87c0 3.062.552 8.165 3.354 8.304l.78.046v.093h-7.992v-.139l.413-.046c2.021-.186 2.848-3.062 2.848-8.768V5.752c0-5.103-.78-5.52-2.572-5.613l-.643-.046V0h6.063l16.446 20.319z"/></g><g fill="#F07355"><path d="M26.69 29.803l-3.633 8.095-3.681-8.095h-1.501l5.048 11.099h.262l5.017-11.099m3.346 11.099V29.804h-1.411v11.098h1.41zm-.712-15.43c.322 0 .596.116.824.35.227.233.34.513.34.842 0 .322-.113.6-.34.827a1.103 1.103 0 01-.823.348c-.31 0-.582-.12-.81-.354a1.155 1.155 0 01-.34-.834c0-.329.113-.613.34-.847.228-.234.5-.354.816-.354l-.007.022zm36.954 8.817c-.177-.725-.436-1.303-.776-1.736-.34-.434-.789-.783-1.348-1.048a4.055 4.055 0 00-1.76-.398c-1.018 0-1.89.333-2.623 1-.538.484-.936 1.212-1.214 2.182h7.721zm0 2.84l1.121.607c-.366.74-.79 1.334-1.27 1.789a5.081 5.081 0 01-1.624 1.036c-.6.24-1.283.354-2.047.354-1.688 0-3.008-.562-3.956-1.687s-1.429-2.402-1.429-3.823c0-1.34.405-2.535 1.214-3.578 1.024-1.331 2.389-1.997 4.101-1.997 1.763 0 3.173.682 4.228 2.046.752.964 1.131 2.167 1.144 3.608H59.95c.025 1.226.408 2.231 1.15 3.015.743.783 1.66 1.175 2.751 1.175.525 0 1.037-.092 1.536-.28.5-.189.923-.435 1.27-.745.351-.31.727-.809 1.135-1.498l-.002-.021zm-16.342-6.003c-.74 0-1.424.19-2.05.556a4.079 4.079 0 00-1.495 1.568 4.347 4.347 0 00-.555 2.13c0 .745.184 1.453.556 2.129a4.088 4.088 0 001.504 1.586c.626.38 1.302.569 2.023.569a4.09 4.09 0 002.066-.556 3.898 3.898 0 001.504-1.517c.348-.638.525-1.359.525-2.159 0-1.22-.399-2.238-1.182-3.058-.79-.819-1.757-1.228-2.907-1.228l.01-.02zm5.314-5.65v15.427H55.45v-2.08c-.556.696-1.181 1.214-1.875 1.561a5.006 5.006 0 01-2.275.525c-1.463 0-2.712-.537-3.747-1.624C46.517 38.205 46 36.89 46 35.34c0-1.516.522-2.812 1.567-3.892 1.045-1.081 2.302-1.618 3.771-1.618.85 0 1.617.183 2.304.55.687.366 1.29.922 1.81 1.655V25.47h1.312l-.002.007zM42.281 37.544a3.885 3.885 0 01-1.47 1.525 3.978 3.978 0 01-2.032.537c-.74 0-1.415-.179-2.035-.537a3.905 3.905 0 01-1.472-1.525 4.304 4.304 0 01-.544-2.13c0-1.181.398-2.189 1.188-3.02.797-.834 1.745-1.25 2.85-1.25 1.1 0 2.048.417 2.844 1.25.796.831 1.195 1.838 1.195 3.02 0 .761-.184 1.472-.544 2.13m.463-5.965c-1.05-1.174-2.37-1.762-3.964-1.762-1.6 0-2.925.59-3.973 1.772-.951 1.073-1.428 2.338-1.428 3.797 0 1.472.504 2.758 1.51 3.859 1.007 1.1 2.304 1.65 3.893 1.65 1.58 0 2.875-.55 3.88-1.65a6.74 6.74 0 00.168-.192l.003 1.851h1.32V35.89c.012-.166.02-.335.02-.505-.001-1.466-.478-2.734-1.43-3.806zM84.817 33.28a6.77 6.77 0 01-.844 3.316c-.56 1.025-1.324 1.816-2.284 2.374-.951.559-2.01.836-3.156.836a6.165 6.165 0 01-3.157-.836c-.96-.559-1.715-1.349-2.283-2.374a6.821 6.821 0 01-.843-3.316c0-1.839.617-3.406 1.852-4.702 1.234-1.296 2.714-1.943 4.44-1.943.819 0 1.582.149 2.293.446.072-.752.333-1.451.624-2.021a8.433 8.433 0 00-2.91-.49c-2.49 0-4.544.919-6.176 2.758-1.48 1.666-2.217 3.636-2.217 5.907 0 2.292.784 4.293 2.348 6.007 1.565 1.713 3.577 2.568 6.047 2.568 2.458 0 4.47-.855 6.033-2.568 1.564-1.714 2.346-3.715 2.346-6.007 0-1.225-.216-2.362-.644-3.41a6.11 6.11 0 01-1.96.793c.342.814.51 1.7.51 2.662M91.133 13.826c-.898 1.916-2.56 2.275-2.56 2.275-1.663.429-2.246 1.067-2.246 1.067-1.662 1.68-.35 3.72-.35 3.72 3.596-.823 4.909-3.78 4.909-3.78-.158 1.994-4.428 4.34-4.428 4.34 1.418 1.39 2.765 1.224 3.658.69 1.181-.7 1.75-2.248 1.75-2.248 1.146-3.44-.718-6.047-.718-6.047"/><path d="M85.363 20.571c.04.578-5.319 15.497-10.062 17.054 0 0 .507.088 1.082.061 0 0 12.254-8.33 9.028-16.983l-.048-.14M85.248 19.63c0-.016-.002-.026-.002-.026-.432-4.596-2.942-6.269-2.942-6.269 1.767 2.982 2.728 5.659 2.944 6.295z"/></g></g></svg>