<svg width="89" height="33" xmlns="http://www.w3.org/2000/svg"><g fill="#303030" fill-rule="evenodd"><path d="M17.94 21.21c0 5.96-2.97 11.2-10.7 11.2-5.1 0-7.24-2.6-7.24-4.89 0-1.47 1.07-2.48 2.61-2.48 1.37 0 2.5 1.07 2.5 2.48 0 1.53-1.07 2.36-1.07 3.12 0 .77.71 1 3.8 1 6 0 5.77-4.83 5.77-10.07V7.3c0-6.48-.42-7.02-2.74-7.13h-1V.06h11.82v.12l-1.01.06c-2.32.11-2.74.64-2.74 7.13V21.2zM22.87 31.64l1.01-.05c2.32-.12 2.74-.65 2.74-7.13V7.3c0-6.48-.42-7.02-2.74-7.13l-1-.06V0h15.56c10.52 0 16.04 7.19 16.04 15.85 0 8.72-5.82 15.91-16.04 15.91H22.87v-.12zM33.21.82c-2.08 0-2.26.18-2.26 6.55V24.5c0 6.37.12 6.55 2.26 6.55h5.29c8.02 0 11.17-7.08 11.17-15.09C49.67 7.6 45.93.88 38.5.88H33.2V.82zM83.71 25.81V10.73c0-3.9-.71-10.38-4.33-10.55L78.37.12V0H88.7v.12l-.53.06c-2.62.23-3.69 3.89-3.69 11.13v20.92h-.65L59.53 3.48V21.1c0 3.89.71 10.37 4.34 10.54l1 .06v.12H54.55v-.18l.54-.05c2.61-.24 3.68-3.9 3.68-11.14V7.3c0-6.48-1.01-7.02-3.33-7.13L54.6.12V0h7.84l21.27 25.81z"/></g></svg>