<?xml version="1.0" encoding="UTF-8"?>
<svg width="16px" height="16px" viewBox="0 0 16 16" version="1.1" xmlns="http://www.w3.org/2000/svg" xmlns:xlink="http://www.w3.org/1999/xlink">
    <title>AY-Outline-Ads-Logo</title>
    <g id="Symbols" stroke="none" stroke-width="1" fill="none" fill-rule="evenodd">
        <g id="AY-Outline-Ads-Logo">
            <rect id="Rectangle" fill="#FFFFFF" x="0" y="0" width="16" height="16" rx="5"></rect>
            <path d="M3.60486756,0.00162754585 L12.1541722,0 C13.3242905,0 13.8418294,0.106604413 14.2804483,0.308413717 L14.4652686,0.400699056 C14.9541574,0.662159695 15.3378403,1.04584256 15.5993009,1.53473144 C15.828079,1.96250922 15.9632807,2.38725548 15.9935064,3.38262988 L16,3.8458278 L16,12.1541722 L15.9935064,12.6173701 C15.9632807,13.6127445 15.828079,14.0374908 15.5993009,14.4652686 C15.3378403,14.9541574 14.9541574,15.3378403 14.4652686,15.5993009 L14.2804483,15.6915863 C13.8418294,15.8933956 13.3242905,16 12.1541722,16 L3.8458278,16 C2.67570945,16 2.15817062,15.8933956 1.71955165,15.6915863 L1.53473144,15.5993009 C1.04584256,15.3378403 0.662159695,14.9541574 0.400699056,14.4652686 L0.353111632,14.3734392 L0.266630239,14.1850416 C0.091919111,13.7645658 0,13.2407107 0,12.1541722 L0,3.8458278 C0,2.75928934 0.091919111,2.23543423 0.266630239,1.81495845 L0.353111632,1.62656077 C0.368493906,1.59582709 0.384357766,1.565287 0.400699056,1.53473144 C0.662159695,1.04584256 1.04584256,0.662159695 1.53473144,0.400699056 L1.71955165,0.308413717 C2.1268407,0.121019363 2.60217799,0.0157149411 3.60486756,0.00162754585 Z M3.8458278,1 C2.77756757,1 2.39725995,1.07344079 2.0063303,1.28251225 C1.69170989,1.45077309 1.45077309,1.69170989 1.28251225,2.0063303 C1.11824182,2.31348932 1.03770256,2.61409085 1.01072877,3.24698433 L1.00114676,3.6271902 L1.00114676,12.3728098 L1.01072877,12.7530157 C1.03770256,13.3859092 1.11824182,13.6865107 1.28251225,13.9936697 C1.45077309,14.3082901 1.69170989,14.5492269 2.0063303,14.7174877 C2.34141286,14.8966919 2.66869148,14.9762489 3.42808487,14.9953223 L3.8458278,15 L12.1541722,15 L12.5719151,14.9953223 C13.3313085,14.9762489 13.6585871,14.8966919 13.9936697,14.7174877 C14.3082901,14.5492269 14.5492269,14.3082901 14.7174877,13.9936697 C14.8668245,13.7144342 14.9469619,13.4406182 14.980564,12.9176389 L14.9953223,12.5719151 C14.9969118,12.5086323 14.9980812,12.4423488 14.9988532,12.3728098 L14.9988532,3.6271902 L14.9892712,3.24698433 C14.9622974,2.61409085 14.8817582,2.31348932 14.7174877,2.0063303 C14.5492269,1.69170989 14.3082901,1.45077309 13.9936697,1.28251225 C13.6306636,1.08837446 13.2768163,1.01118353 12.3728098,1.00114676 L3.8458278,1 Z" id="Rectangle" fill="#000000" fill-rule="nonzero"></path>
            <path d="M5.68293226,5.01919894 L8.44576455,10.8090405 L7.48983207,10.8090405 L6.8825338,9.48595053 L4.40460688,9.48595053 L3.75982105,10.8090405 L2.8188836,10.8090405 L5.68293226,5.01919894 Z M8.50859368,5.3614382 L10.1570218,7.53836216 L11.8098971,5.3614382 L12.9231273,5.3614382 L10.6728872,8.45570451 L10.6728872,10.8090405 L9.63670938,10.8090405 L9.63670938,8.45570451 L7.39536345,5.3614382 L8.50859368,5.3614382 Z M12.8573997,10.0056068 L12.8573997,10.8012249 L12.0120555,10.8012249 L12.0120555,10.0056068 L12.8573997,10.0056068 Z M5.66793724,6.86094012 L4.76823609,8.71326601 L6.52640209,8.71326601 L5.66793724,6.86094012 Z" id="Combined-Shape" fill="#000000" fill-rule="nonzero"></path>
        </g>
    </g>
</svg>